<?xml version="1.0" ?><svg viewBox="0 0 32 32" xmlns="http://www.w3.org/2000/svg"><defs><style>.cls-1{stroke:#ffff;stroke-linecap:round;stroke-linejoin:round;stroke-width:2px;}</style></defs><title/><g data-name="60-lock" id="_60-lock"><rect class="cls-1" height="14" rx="2" ry="2" width="20" x="6" y="17"/><path class="cls-1" d="M16,1h0a8,8,0,0,1,8,8v8a0,0,0,0,1,0,0H8a0,0,0,0,1,0,0V9A8,8,0,0,1,16,1Z"/><path class="cls-1" d="M16,5h0a4,4,0,0,1,4,4v8a0,0,0,0,1,0,0H12a0,0,0,0,1,0,0V9A4,4,0,0,1,16,5Z"/></g></svg>