<?xml version="1.0" ?><svg enable-background="new 0 0 64 64" height="64px" id="Layer_1" version="1.1" viewBox="0 0 64 64" width="64px" xml:space="preserve" xmlns="http://www.w3.org/2000/svg" xmlns:xlink="http://www.w3.org/1999/xlink"><circle cx="32" cy="32" fill="#E0995E" r="32"/><g opacity="0.2"><circle cx="35.065" cy="19.041" fill="#231F20" r="5.041"/></g><g opacity="0.2"><path d="M18.502,53.951c-0.958,0-1.872-0.553-2.286-1.485c-0.561-1.262,0.008-2.739,1.27-3.3   C28.142,44.43,27.583,39.03,27.572,38.978c-0.168-0.84,0.106-1.708,0.727-2.299c0.62-0.592,1.5-0.825,2.332-0.616   c0.537,0.134,13.173,3.422,14.833,15.035c0.195,1.367-0.755,2.633-2.122,2.829c-1.366,0.192-2.633-0.754-2.829-2.122   c-0.782-5.473-5.359-8.465-8.387-9.868c-0.964,3.254-3.933,7.942-12.61,11.799C19.186,53.882,18.841,53.951,18.502,53.951z" fill="#231F20"/></g><g opacity="0.2"><path d="M21.381,39.547c-1.381,0-2.5-1.119-2.5-2.5c0-7.372,7.02-10.49,10.731-11.108   c0.868-0.147,1.744,0.176,2.313,0.844c0.209,0.241,5.341,6.039,11.456,2.982c1.236-0.619,2.737-0.117,3.354,1.118   c0.618,1.235,0.117,2.737-1.118,3.354c-6.816,3.409-13.157-0.041-16.389-3.058c-1.896,0.597-5.348,2.188-5.348,5.869   C23.881,38.428,22.762,39.547,21.381,39.547z" fill="#231F20"/></g><g opacity="0.2"><path d="M31.465,41.488c-1.191,0-2.317-0.714-2.787-1.887c-3.514-8.785,0.226-12.88,0.665-13.318l4.242,4.242   c0,0,0.049-0.038,0.118-0.127c-0.015,0.019-1.453,1.978,0.546,6.975c0.615,1.539-0.133,3.284-1.671,3.9   C32.214,41.419,31.836,41.488,31.465,41.488z" fill="#231F20"/></g><circle cx="35.065" cy="16.041" fill="#FFFFFF" r="5.041"/><path d="  M18.501,48.451c12.964-5.762,11.523-12.964,11.523-12.964s11.523,2.881,12.964,12.964" fill="none" stroke="#FFFFFF" stroke-linecap="round" stroke-linejoin="round" stroke-miterlimit="10" stroke-width="5"/><path d="  M44.501,29c-8,4-14.477-3.596-14.477-3.596s-8.642,1.44-8.643,8.643" fill="none" stroke="#FFFFFF" stroke-linecap="round" stroke-linejoin="round" stroke-miterlimit="10" stroke-width="5"/><path d="  M31.464,25.404c0,0-2.881,2.881,0,10.083" fill="none" stroke="#FFFFFF" stroke-linecap="round" stroke-linejoin="round" stroke-miterlimit="10" stroke-width="6"/></svg>