<?xml version="1.0" ?><!DOCTYPE svg  PUBLIC '-//W3C//DTD SVG 1.1//EN'  'http://www.w3.org/Graphics/SVG/1.1/DTD/svg11.dtd'><svg enable-background="new 0 0 32 32" height="32px" version="1.1" viewBox="0 0 32 32" width="32px" xml:space="preserve" xmlns="http://www.w3.org/2000/svg" xmlns:xlink="http://www.w3.org/1999/xlink"><g id="Cryptocurrency_1_"><g><g><g><g><g><path d="M21,23.5c-0.294,0-0.584-0.017-0.869-0.05c-0.274-0.032-0.471-0.28-0.439-0.554        c0.032-0.274,0.278-0.471,0.554-0.439C20.493,22.485,20.745,22.5,21,22.5c3.584,0,6.5-2.916,6.5-6.5S24.584,9.5,21,9.5        c-0.261,0-0.518,0.016-0.771,0.045c-0.281,0.033-0.522-0.164-0.555-0.438s0.165-0.522,0.438-0.555        C20.404,8.518,20.7,8.5,21,8.5c4.136,0,7.5,3.364,7.5,7.5S25.136,23.5,21,23.5z" fill="#263238"/></g></g></g><g><g><g><path d="M21,26c-1.061,0-2.105-0.166-3.105-0.491c-0.263-0.086-0.406-0.368-0.321-0.63        c0.085-0.264,0.368-0.406,0.63-0.321C19.104,24.852,20.045,25,21,25c4.962,0,9-4.037,9-9s-4.038-9-9-9        c-0.969,0-1.923,0.153-2.834,0.455C17.903,7.541,17.62,7.4,17.534,7.138c-0.087-0.263,0.055-0.545,0.317-0.632        C18.864,6.17,19.924,6,21,6c5.514,0,10,4.486,10,10S26.514,26,21,26z" fill="#263238"/></g></g></g><g><g><g><path d="M11,26C5.486,26,1,21.514,1,16S5.486,6,11,6s10,4.486,10,10S16.514,26,11,26z M11,7        c-4.962,0-9,4.037-9,9s4.038,9,9,9s9-4.037,9-9S15.962,7,11,7z" fill="#263238"/></g></g></g><g><g><g><path d="M16.918,20.601c-0.175,0.175-0.456,0.197-0.657,0.043c-0.22-0.168-0.262-0.481-0.094-0.7        c1.966-2.574,1.72-6.244-0.574-8.538c-1.628-1.628-3.938-2.268-6.176-1.71C9.148,9.762,8.878,9.6,8.811,9.332        C8.744,9.063,8.906,8.793,9.175,8.726c2.544-0.634,5.274,0.122,7.125,1.973c2.646,2.646,2.932,6.883,0.661,9.852        C16.948,20.568,16.933,20.585,16.918,20.601z" fill="#263238"/></g></g></g><g><g><g><path d="M13.051,23.147c-0.063,0.062-0.141,0.108-0.232,0.131c-2.544,0.634-5.274-0.123-7.125-1.974        c-2.621-2.621-2.924-6.832-0.704-9.795c0.165-0.22,0.479-0.266,0.7-0.101c0.221,0.166,0.266,0.48,0.101,0.701        c-1.924,2.566-1.661,6.216,0.61,8.487c1.628,1.629,3.938,2.268,6.176,1.71c0.269-0.066,0.539,0.097,0.606,0.364        C13.227,22.849,13.171,23.026,13.051,23.147z" fill="#263238"/></g></g></g></g></g><g><g><g><g><path d="M11.5,20h-3C8.224,20,8,19.776,8,19.5S8.224,19,8.5,19h3c0.827,0,1.5-0.673,1.5-1.5S12.327,16,11.5,16       h-2v-1h2c1.378,0,2.5,1.122,2.5,2.5S12.878,20,11.5,20z" fill="#263238"/></g></g></g><g><g><g><path d="M11,16H9.5v-1H11c0.551,0,1-0.448,1-1s-0.449-1-1-1H8.5C8.224,13,8,12.776,8,12.5S8.224,12,8.5,12H11       c1.103,0,2,0.897,2,2S12.103,16,11,16z" fill="#263238"/></g></g></g><g><g><g><path d="M10.5,20.998c-0.276,0-0.5-0.224-0.5-0.5v-1h1v1C11,20.774,10.776,20.998,10.5,20.998z" fill="#263238"/></g></g></g><g><g><g><path d="M10,12.5v-1c0-0.276,0.224-0.5,0.5-0.5s0.5,0.224,0.5,0.5v1H10z" fill="#263238"/></g></g></g><g><g><g><rect fill="#263238" height="6" width="1" x="9" y="13"/></g></g></g></g></g></svg>