<?xml version="1.0" ?><svg data-name="Layer 2" id="Layer_2" viewBox="0 0 64 64" xmlns="http://www.w3.org/2000/svg"><title/><path d="M13,31a1,1,0,0,0,1-1V27a1,1,0,0,0-2,0v3A1,1,0,0,0,13,31Z"/><path d="M22,4a1,1,0,0,0,1-1V1a1,1,0,0,0-2,0V3A1,1,0,0,0,22,4Z"/><path d="M35,7a1,1,0,0,0,1-1V4a1,1,0,0,0-2,0V6A1,1,0,0,0,35,7Z"/><path d="M12,38a1,1,0,0,0,2,0V35a1,1,0,0,0-2,0Z"/><path d="M59.974,53.844c.006-.115.026-.228.026-.344,0-2.694-1.588-5.173-4.471-6.982a1,1,0,0,0-1.062,1.694,7.782,7.782,0,0,1,3.088,3.3c-2.176-.829-5.469-.656-9.817.523-7.039,1.907-10.183-1.657-11.161-3.164A15.411,15.411,0,0,1,46,46a18.028,18.028,0,0,1,4.742.618,1,1,0,0,0,.527-1.93A19.775,19.775,0,0,0,47,44.032a18.783,18.783,0,0,0,.751-3.1l3.114-.283a9.4,9.4,0,0,0,8.582-8.811L60,25.081A1,1,0,0,0,59,24H48V21a1,1,0,0,0-1-1H30V19a2,2,0,0,1,2-2,4,4,0,0,0,4-4V10a1,1,0,0,0-2,0v3a2,2,0,0,1-2,2,4,4,0,0,0-4,4v1H17V16a2,2,0,0,1,2-2,4,4,0,0,0,4-4V7a1,1,0,0,0-2,0v3a2,2,0,0,1-2,2,4,4,0,0,0-4,4v4H5a1,1,0,0,0-1,1v4a1,1,0,0,0,2,0V22H46V38a16.9,16.9,0,0,1-1.121,6.039,16.459,16.459,0,0,0-10.064,3.772.971.971,0,0,0-.3.271A7.579,7.579,0,0,0,32,53.5a6.514,6.514,0,0,0,.122,1.189A17.1,17.1,0,0,1,29,55H23A17.019,17.019,0,0,1,6,38V29a1,1,0,0,0-2,0v9A19.022,19.022,0,0,0,23,57h6a19.124,19.124,0,0,0,3.789-.386A10.7,10.7,0,0,0,37.439,61H3a1,1,0,0,0,0,2H45a.945.945,0,0,0,.146-.029c.284.012.566.029.854.029,7.33,0,13.351-3.844,13.942-8.716A.973.973,0,0,0,59.974,53.844ZM57.916,26l-.462,5.7a7.417,7.417,0,0,1-6.769,6.961l-2.729.248c.014-.3.044-.6.044-.909V26ZM46,61c-6.617,0-12-3.364-12-7.5a5.271,5.271,0,0,1,1.161-3.2c1.51,2.054,5.417,5.746,13.1,3.663,6.75-1.831,9.19-.614,9.69.129C57.464,57.952,52.3,61,46,61Z"/></svg>