<?xml version="1.0" ?><!DOCTYPE svg  PUBLIC '-//W3C//DTD SVG 1.1//EN'  'http://www.w3.org/Graphics/SVG/1.1/DTD/svg11.dtd'><svg height="512px" style="enable-background:new 0 0 512 512;" version="1.1" viewBox="0 0 512 512" width="512px" xml:space="preserve" xmlns="http://www.w3.org/2000/svg" xmlns:xlink="http://www.w3.org/1999/xlink"><g id="C_-_87_x2C__structure_x2C__Company_x2C__cooperation_x2C__group_x2C__hierarchy_x2C__people_x2C__team"><g><g><path d="M127.866,412.712H70.924c-14.209,0-25.77,11.498-25.77,25.631v33.253h108.185v-33.549     C153.339,424.077,141.912,412.712,127.866,412.712z"/><path d="M310.093,165.026c0-13.97-11.429-25.334-25.476-25.334h-56.94c-14.215,0-25.779,11.498-25.779,25.631v33.254h108.195     V165.026z"/><path d="M412.75,385.955c20.202,0,36.638-16.342,36.638-36.431c0-20.092-16.436-36.438-36.638-36.438     c-20.209,0-36.65,16.346-36.65,36.438C376.1,369.613,392.541,385.955,412.75,385.955z"/><path d="M441.37,412.712h-56.941c-14.215,0-25.779,11.498-25.779,25.631v33.253h108.196v-33.549     C466.846,424.077,455.418,412.712,441.37,412.712z"/><path d="M337.179,394.521l-76.498-57.101v-104.49c0-2.588-2.097-4.686-4.685-4.686c-2.587,0-4.686,2.097-4.686,4.686v104.49     l-76.49,57.101c-2.074,1.549-2.499,4.484-0.952,6.559c0.92,1.232,2.331,1.882,3.758,1.882c0.975,0,1.958-0.303,2.8-0.931     l75.569-56.414l75.576,56.414c0.842,0.628,1.825,0.931,2.8,0.931c1.429,0,2.839-0.65,3.759-1.882     C339.678,399.006,339.252,396.069,337.179,394.521z"/></g><path d="M97.901,385.955c20.202,0,36.638-16.342,36.638-36.431c0-20.092-16.436-36.438-36.638-36.438    c-20.209,0-36.649,16.346-36.649,36.438C61.251,369.613,77.692,385.955,97.901,385.955z"/><path d="M253.92,113.274c20.203,0,36.637-16.342,36.637-36.43c0-20.092-16.434-36.438-36.637-36.438    c-20.209,0-36.65,16.346-36.65,36.438C217.27,96.932,233.711,113.274,253.92,113.274z"/></g></g><g id="Layer_1"/></svg>